<svg xmlns="http://www.w3.org/2000/svg" width="1435" height="429" viewBox="0 0 1435 429"><defs><mask id="n3ygb" width="2" height="2" x="-1" y="-1"><path fill="#fff" d="M35 34h1344v340H35z"/><path d="M91.38 34.064l1267.016 51.951c11.432.47 20.604 9.98 20.604 21.249v165.271c0 11.269-9.172 20.98-20.604 21.698L91.38 373.807C60.48 375.748 35 362.03 35 343.131V65.97c0-18.898 25.48-33.172 56.38-31.906z"/></mask><filter id="n3yga" width="1494.2" height="491" x="-35" y="-36" filterUnits="userSpaceOnUse"><feOffset dx="10.2" dy="11" in="SourceGraphic" result="FeOffset1113Out"/><feGaussianBlur in="FeOffset1113Out" result="FeGaussianBlur1114Out" stdDeviation="24 24"/></filter></defs><g><g><g filter="url(#n3yga)"><path fill="none" d="M91.38 34.064l1267.016 51.951c11.432.47 20.604 9.98 20.604 21.249v165.271c0 11.269-9.172 20.98-20.604 21.698L91.38 373.807C60.48 375.748 35 362.03 35 343.131V65.97c0-18.898 25.48-33.172 56.38-31.906z" mask="url(&quot;#n3ygb&quot;)"/><path fill-opacity=".1" d="M91.38 34.064l1267.016 51.951c11.432.47 20.604 9.98 20.604 21.249v165.271c0 11.269-9.172 20.98-20.604 21.698L91.38 373.807C60.48 375.748 35 362.03 35 343.131V65.97c0-18.898 25.48-33.172 56.38-31.906z"/></g><path fill="#fff" d="M91.38 34.064l1267.016 51.951c11.432.47 20.604 9.98 20.604 21.249v165.271c0 11.269-9.172 20.98-20.604 21.698L91.38 373.807C60.48 375.748 35 362.03 35 343.131V65.97c0-18.898 25.48-33.172 56.38-31.906z"/></g></g></svg>